<svg width="12" height="23" viewBox="0 0 12 23" fill="none" xmlns="http://www.w3.org/2000/svg">
<path d="M11.0904 15.2088L11.0913 15.2969C11.0927 16.5179 10.6692 17.6949 9.9047 18.5945L9.90737 18.5907C9.11101 19.5379 8.03403 20.1559 6.86147 20.3387L6.83395 20.3425V22.6042C6.83395 22.7092 6.79534 22.8099 6.7266 22.8841C6.65786 22.9583 6.56463 23 6.46742 23H6.45233H6.45322H4.8495C4.74889 22.9988 4.65271 22.955 4.58156 22.8782C4.5104 22.8014 4.46992 22.6975 4.46877 22.5889V20.3425C3.93395 20.2654 3.40845 20.126 2.90144 19.9266L2.9538 19.9448C2.19648 19.6713 1.4859 19.2653 0.85043 18.7431L0.86818 18.7575C0.674082 18.6059 0.48773 18.443 0.309942 18.2697L0.316155 18.2754C0.217346 18.1732 0.148121 18.0965 0.10848 18.0454C0.044317 17.9765 0.00643458 17.8841 0.002326 17.7865C-0.00178258 17.6889 0.028182 17.5932 0.0862923 17.5183L0.0854048 17.5193L1.30927 15.7866C1.34178 15.7414 1.38296 15.7043 1.42998 15.6778C1.47701 15.6514 1.52877 15.6362 1.58173 15.6333H1.58262C1.63525 15.6229 1.68952 15.6281 1.73957 15.6486C1.78962 15.669 1.83355 15.7038 1.86662 15.7493L1.8675 15.7502L1.89058 15.7751C2.69302 16.5685 3.6751 17.1192 4.73768 17.3717L4.7785 17.3803C5.04298 17.4455 5.3465 17.4829 5.65802 17.4829L5.71304 17.4838C6.3263 17.4838 6.8943 17.2768 7.36202 16.9242L7.35225 16.9309C7.58816 16.7587 7.77924 16.5241 7.90727 16.2494C8.0353 15.9748 8.09599 15.6693 8.08355 15.3621V15.3659C8.08355 15.1139 8.01699 14.8791 7.9025 14.6807L7.90517 14.6865C7.79698 14.4886 7.66342 14.3082 7.50845 14.1508L7.50757 14.1498C7.30126 13.9629 7.07443 13.8043 6.83218 13.6773L6.81265 13.6678C6.49552 13.4927 6.23519 13.3557 6.03165 13.2566C5.82812 13.1576 5.51128 13.0186 5.08114 12.8398C4.77229 12.703 4.52853 12.596 4.34984 12.5187C4.17116 12.4414 3.92739 12.328 3.61854 12.1785C3.30969 12.029 3.06208 11.8964 2.8757 11.7808C2.68933 11.6652 2.46538 11.5134 2.20387 11.3256C1.97477 11.1662 1.76048 10.9833 1.56398 10.7793L1.56487 10.7803C1.38653 10.5854 1.21768 10.3807 1.05899 10.167L1.04745 10.1516C0.879388 9.93164 0.739944 9.68788 0.632992 9.42713L0.625892 9.407C0.522809 9.14232 0.441149 8.86849 0.38183 8.58858L0.375617 8.55408C0.307717 8.23279 0.273776 7.90422 0.274442 7.57467V7.52292C0.274442 6.325 0.71908 5.23825 1.44062 4.44667L1.43973 4.44763C2.24399 3.54477 3.29498 2.94391 4.43859 2.73317L4.47054 2.72838V0.410168C4.47054 0.298043 4.51403 0.19646 4.58325 0.124585C4.61747 0.0860985 4.65853 0.0554779 4.70398 0.0345628C4.74943 0.0136476 4.79833 0.00286957 4.84773 0.00287628H6.46919C6.67154 0.00287628 6.83573 0.180168 6.83573 0.398668V0.41496V0.414001V2.67279C7.32385 2.72838 7.76938 2.83283 8.19627 2.98233L8.14923 2.96796C8.55659 3.10213 8.89917 3.24875 9.22843 3.41933L9.18228 3.39825C9.47338 3.55446 9.72099 3.7145 9.95529 3.89275L9.93754 3.87933C10.1742 4.0595 10.3286 4.18345 10.4008 4.25117C10.473 4.31889 10.5325 4.37863 10.5792 4.43038C10.643 4.48972 10.6843 4.57244 10.6951 4.66264C10.706 4.75285 10.6855 4.84419 10.6378 4.91913L10.6387 4.91817L9.67839 6.79267C9.65443 6.85029 9.61642 6.8998 9.56844 6.93591C9.52045 6.97203 9.46428 6.99341 9.40593 6.99775H9.40504C9.34868 7.01041 9.29038 7.00886 9.23466 6.99324C9.17894 6.97762 9.12731 6.94834 9.08377 6.90767H9.08465C9.06099 6.88211 9.0036 6.831 8.91248 6.75433C8.82136 6.67767 8.66694 6.56427 8.4492 6.41413C8.23795 6.26791 8.01829 6.13635 7.79157 6.02025L7.75429 6.003C7.4811 5.86736 7.19714 5.75863 6.90584 5.67813L6.86857 5.6695C6.53773 5.57171 6.19628 5.52208 5.85327 5.52192H5.85238C5.19512 5.48941 4.54555 5.68559 3.99928 6.08158L4.01082 6.07392C3.70868 6.2907 3.48381 6.61201 3.37317 6.98505C3.26253 7.3581 3.27269 7.76069 3.40199 8.12667L3.39844 8.11517C3.48009 8.326 3.59902 8.50425 3.74812 8.64704L3.74989 8.648C3.89278 8.79271 4.04543 8.93167 4.20518 9.06104L4.21938 9.07158C4.41019 9.21342 4.6294 9.34663 4.85927 9.45779L4.88589 9.46929C5.18291 9.61879 5.42253 9.73443 5.60477 9.81621C5.787 9.89799 6.06449 10.0155 6.43724 10.1689C6.85733 10.3401 7.1783 10.4749 7.40018 10.5733C7.62205 10.6717 7.92321 10.8215 8.30365 11.0228C8.62411 11.1853 8.93293 11.3733 9.22754 11.5853L9.2018 11.568C9.47693 11.7789 9.71655 11.9897 9.94464 12.2149L9.93932 12.2092C10.1852 12.4411 10.3946 12.7094 10.5615 13.0094L10.5694 13.0247C10.7168 13.3055 10.8437 13.6323 10.936 13.9744L10.944 14.007C11.0407 14.3568 11.0957 14.7593 11.0957 15.1752V15.2155V15.2135L11.0904 15.2088Z" fill="black"/>
</svg>
